#N canvas -8 -8 1366 685 12;
#X declare -path else;
#N canvas -8 -8 1366 685 acidfilter 1;
#X obj 216 134 mtof;
#X obj 255 445 *~;
#N canvas 704 98 450 300 envelope 0;
#X msg 193 127 1 5;
#X obj 193 162 line~;
#X obj 236 133 pack 0 500;
#X obj 236 107 del 50;
#X obj 193 48 inlet;
#X obj 192 245 outlet~;
#X obj 314 97 inlet;
#X obj 192 193 *~;
#X obj 192 219 *~;
#X connect 0 0 1 0;
#X connect 1 0 7 0;
#X connect 1 0 7 1;
#X connect 2 0 1 0;
#X connect 3 0 2 0;
#X connect 4 0 0 0;
#X connect 4 0 3 0;
#X connect 6 0 2 1;
#X connect 7 0 8 0;
#X connect 7 0 8 1;
#X connect 8 0 5 0;
#X restore 583 241 pd envelope;
#X obj 216 160 phasor~;
#X obj 216 108 t f b b, f 59;
#N canvas 704 98 450 300 envelope 0;
#X msg 193 127 1 5;
#X obj 193 162 line~;
#X obj 236 107 del 50;
#X obj 193 48 inlet;
#X obj 192 245 outlet~;
#X obj 314 97 inlet;
#X obj 192 193 *~;
#X obj 192 219 *~;
#X obj 236 133 pack 0 500;
#X connect 0 0 1 0;
#X connect 1 0 6 0;
#X connect 1 0 6 1;
#X connect 2 0 8 0;
#X connect 3 0 0 0;
#X connect 3 0 2 0;
#X connect 5 0 8 1;
#X connect 6 0 7 0;
#X connect 6 0 7 1;
#X connect 7 0 4 0;
#X connect 8 0 1 0;
#X restore 486 192 pd envelope;
#X obj 361 258 *~ 5000;
#X obj 216 305 vcf~ 1;
#X obj 170 483 *~;
#X floatatom 216 37 5 0 0 0 - - -;
#X obj 560 164 * 25;
#X obj 353 603 tgl 15 0 empty empty Wah-wah_On/Off 17 7 0 10 -262144
-1 -1 0 1;
#X obj 286 768 *~ 0;
#X obj 168 765 *~ 1;
#X msg 266 701 1;
#X msg 318 699 0;
#X obj 274 663 t b;
#X msg 371 703 1;
#X msg 431 708 0;
#X obj 383 668 t b;
#X obj 353 626 route 0 1;
#X obj 197 680 *~;
#X obj 207 645 osc~ 5;
#X obj 167 907 dac~;
#X obj 167 871 *~ 2;
#X text 741 714 https://youtu.be/_qImZOcHz2U;
#X obj 230 484 hsl 128 15 0 1 0 0 empty empty Velocities:_0_-_1 -2
21 0 10 -262144 -1 -1 12800 1;
#X obj 283 869 vline~;
#X msg 283 844 \$1 5;
#X obj 204 546 vline~;
#X msg 204 521 \$1 5;
#X msg 968 696 0;
#X msg 931 696 1;
#X obj 836 513 moses 0;
#X obj 877 453 vsl 15 40 0 100 0 0 empty \$0-acidfilterwahwah Wah-Wah_Likelihood
0 -9 0 10 -262144 -1 -1 0 1;
#X obj 178 431 / 127;
#X obj 138 397 r \$0-afvelocity;
#X obj 525 297 r \$0-afnotes;
#X obj 286 811 hsl 128 15 0.1 2 0 0 empty \$0-acidfiltervolume Volume:_0_-_2
-2 21 0 10 -262144 -1 -1 16348 1;
#X obj 216 8 r \$0-afnotes;
#X obj 916 458 tgl 15 0 empty empty empty 17 7 0 10 -262144 -1 -1 0
1;
#X obj 916 482 * 100;
#X obj 836 339 random 100;
#X floatatom 707 272 5 0 100 0 - #0-randomise -;
#X obj 255 222 vsl 15 30 1 10 0 0 empty \$0-acidfilterresonance Resonance
0 -9 0 10 -262144 -1 -1 4022 1;
#X obj 486 147 vsl 15 30 500 7000 0 0 empty \$0-acidfilterdecaytime
Filter_Decay_Time 0 -9 0 10 -262144 -1 -1 4938 1;
#X floatatom 516 163 5 0 0 0 - - -;
#X obj 672 176 vsl 15 30 5000 70000 0 0 empty \$0-acidampdecaytime
Amp_Decay_Time 0 -9 0 10 -262144 -1 -1 5800 1;
#X floatatom 672 214 10 0 0 0 - - -;
#X obj 525 343 spigot;
#X obj 582 342 tgl 15 0 empty empty Randomiser_On 17 7 0 10 -262144
-1 -1 0 1;
#X text 258 37 47;
#X obj 707 298 t f f;
#X obj 421 408 random;
#X obj 567 502 vsl 15 30 5000 7000 0 0 empty \$0-acidfilterdecaytimex
Filter_Decay_Time_Multiplier 0 -9 0 10 -262144 -1 -1 3000 1;
#X obj 677 514 vsl 15 30 50000 70000 0 0 empty \$0-acidampdecaytimex
Amp_Decay_Time_Multiplier 0 -9 0 10 -262144 -1 -1 4200 1;
#X obj 361 557 s \$0-resonance;
#X obj 506 551 s \$0-filter;
#X obj 609 571 s \$0-ampdecay;
#X obj 167 840 *~;
#X floatatom 255 268 5 0 0 0 - - -;
#X obj 525 320 t b b;
#X obj 421 521 vsl 15 30 4 6 0 0 empty \$0-acidfilterresonancex Resonance_Multiplier
0 -9 0 10 -262144 -1 -1 3400 1;
#X floatatom 290 564 5 0 0 0 - - -;
#X floatatom 488 589 10 0 0 0 - - -;
#X floatatom 567 601 10 0 0 0 - - -;
#X obj 635 365 + 1;
#X obj 421 431 moses 1;
#X obj 521 412 random;
#X obj 521 434 moses 1;
#X obj 605 402 random;
#X obj 605 424 moses 1;
#X obj 525 369 t b b b;
#X obj 414 482 / 10;
#X obj 539 464 / 10;
#X obj 630 459 / 10;
#X obj 731 438 moses 1;
#X obj 756 473 / 10;
#X msg 731 409 1;
#X obj 731 358 tgl 15 0 empty empty empty 17 7 0 10 -262144 -1 -1 1
1;
#X obj 731 382 metro 1;
#X obj 506 527 * 6500;
#X obj 609 547 * 65000;
#X obj 361 533 * 5;
#X connect 0 0 3 0;
#X connect 1 0 8 0;
#X connect 2 0 1 1;
#X connect 3 0 7 0;
#X connect 4 0 0 0;
#X connect 4 1 5 0;
#X connect 4 2 2 0;
#X connect 5 0 6 0;
#X connect 6 0 7 1;
#X connect 7 1 1 0;
#X connect 8 0 13 0;
#X connect 8 0 21 0;
#X connect 9 0 4 0;
#X connect 10 0 5 1;
#X connect 11 0 20 0;
#X connect 12 0 59 0;
#X connect 13 0 59 0;
#X connect 14 0 13 1;
#X connect 15 0 12 1;
#X connect 16 0 14 0;
#X connect 16 0 15 0;
#X connect 17 0 12 1;
#X connect 18 0 13 1;
#X connect 19 0 17 0;
#X connect 19 0 18 0;
#X connect 20 0 16 0;
#X connect 20 1 19 0;
#X connect 21 0 12 0;
#X connect 22 0 21 1;
#X connect 24 0 23 0;
#X connect 24 0 23 1;
#X connect 26 0 30 0;
#X connect 27 0 59 1;
#X connect 28 0 27 0;
#X connect 29 0 8 1;
#X connect 30 0 29 0;
#X connect 31 0 11 0;
#X connect 32 0 11 0;
#X connect 33 0 32 0;
#X connect 33 1 31 0;
#X connect 34 0 33 1;
#X connect 35 0 26 0;
#X connect 36 0 35 0;
#X connect 37 0 61 0;
#X connect 38 0 28 0;
#X connect 39 0 9 0;
#X connect 40 0 41 0;
#X connect 41 0 33 1;
#X connect 42 0 33 0;
#X connect 43 0 52 0;
#X connect 44 0 60 0;
#X connect 45 0 46 0;
#X connect 46 0 10 0;
#X connect 47 0 48 0;
#X connect 48 0 2 1;
#X connect 49 0 72 0;
#X connect 50 0 49 1;
#X connect 52 0 66 0;
#X connect 52 1 50 0;
#X connect 53 0 67 0;
#X connect 54 0 81 1;
#X connect 55 0 82 1;
#X connect 59 0 24 0;
#X connect 60 0 7 2;
#X connect 61 0 49 0;
#X connect 61 1 42 0;
#X connect 62 0 83 1;
#X connect 66 0 53 1;
#X connect 66 0 68 1;
#X connect 66 0 70 1;
#X connect 67 1 73 0;
#X connect 68 0 69 0;
#X connect 69 1 74 0;
#X connect 70 0 71 0;
#X connect 71 1 75 0;
#X connect 72 0 53 0;
#X connect 72 1 68 0;
#X connect 72 2 70 0;
#X connect 73 0 83 0;
#X connect 74 0 81 0;
#X connect 75 0 82 0;
#X connect 76 1 77 0;
#X connect 78 0 76 0;
#X connect 79 0 80 0;
#X connect 80 0 78 0;
#X connect 81 0 57 0;
#X connect 81 0 64 0;
#X connect 82 0 58 0;
#X connect 82 0 65 0;
#X connect 83 0 56 0;
#X connect 83 0 63 0;
#X coords 0 0 0.5 0.5 0 0 0;
#X restore 232 248 pd acidfilter;
#X obj 401 1 cnv 15 648 198 empty cnv2 Acid_Filter 0 12 0 25 -233017
-66577 0;
#X obj 412 171 hsl 128 15 0 2 0 0 \$0-acidfiltervolume empty Volume
-2 -7 0 10 -262144 -1 -1 8400 1;
#X floatatom 110 134 5 0 0 0 - - -;
#X floatatom 150 134 5 0 0 0 - - -;
#X obj 110 110 unpack f f;
#X obj 110 66 hradio 15 1 0 4 empty empty empty 0 -8 0 10 -262144 -1
-1 3;
#N canvas -8 -8 1366 685 melodies 0;
#X obj 151 40 inlet;
#N canvas -8 -8 1366 685 two_notes 0;
#X obj 22 307 outlet;
#X obj 22 39 inlet;
#X obj 22 87 tgl 15 0 empty empty empty 17 7 0 10 -262144 -1 -1 0 1
;
#X obj 22 111 sel 0 1;
#X msg 22 135 55;
#X msg 78 136 67;
#X obj 141 112 sel 0 1;
#X msg 174 136 60;
#X msg 141 136 50;
#X obj 81 236 poly 16 1;
#X obj 81 260 - 1;
#X obj 81 286 pack f f f;
#X obj 81 310 outlet;
#X obj 22 63 metro 200;
#X obj 87 40 inlet;
#X obj 22 185 pack;
#X connect 1 0 13 0;
#X connect 2 0 6 0;
#X connect 2 0 3 0;
#X connect 3 0 4 0;
#X connect 3 1 5 0;
#X connect 4 0 15 0;
#X connect 5 0 15 0;
#X connect 6 0 8 0;
#X connect 6 1 7 0;
#X connect 7 0 15 1;
#X connect 8 0 15 1;
#X connect 9 0 10 0;
#X connect 9 1 11 1;
#X connect 9 2 11 2;
#X connect 10 0 11 0;
#X connect 11 0 12 0;
#X connect 13 0 2 0;
#X connect 14 0 13 1;
#X connect 15 0 0 0;
#X connect 15 0 9 0;
#X restore 41 341 pd two_notes;
#X obj 41 247 tgl 15 0 empty empty empty 17 7 0 10 -262144 -1 -1 0
1;
#X obj 134 256 tgl 15 0 empty empty empty 17 7 0 10 -262144 -1 -1 0
1;
#X msg 64 249 0;
#X msg 155 253 0;
#N canvas -8 -8 1366 685 many_notes 0;
#X obj 37 37 inlet;
#X obj 37 115 i;
#X obj 37 139 + 1;
#X obj 37 163 % 6;
#X obj 37 91 metro 200;
#X obj 369 56 metro 2000;
#X obj 369 80 random 4;
#X obj 369 104 sel 0 1 2 3;
#X obj 37 61 t f f b;
#X obj 369 29 pipe 8000;
#X obj 118 35 tgl 15 0 empty empty empty 17 7 0 10 -262144 -1 -1 0
1;
#X obj 37 282 pack;
#X obj 60 235 - 18;
#X obj 139 324 poly 16 1;
#X obj 139 348 - 1;
#X obj 139 372 pack f f f;
#X obj 139 396 outlet;
#X obj 37 399 outlet;
#X obj 112 62 inlet;
#X obj 161 67 table testnotes;
#X obj 162 90 table testvelocities;
#X obj 37 189 tabread testnotes;
#X msg 229 132 \; testnotes 0 58 55 58 56 79 70 \; testvelocities 0
80 64 70 75 64 70;
#X msg 490 132 \; testnotes 0 72 75 58 56 79 60 \; testvelocities 0
80 64 70 75 64 70;
#X msg 370 186 \; testnotes 0 60 62 63 65 63 62 \; testvelocities 0
80 64 70 75 64 70;
#X msg 196 242 \; testnotes 0 60 67 62 68 70 \; testvelocities 0 80
64 70 75 64;
#X obj 66 213 tabread testvelocities;
#X obj 160 11 r \$0-testnotes&velocities;
#X connect 0 0 8 0;
#X connect 1 0 2 0;
#X connect 2 0 3 0;
#X connect 2 0 1 1;
#X connect 3 0 21 0;
#X connect 3 0 26 0;
#X connect 4 0 1 0;
#X connect 5 0 6 0;
#X connect 6 0 7 0;
#X connect 7 0 25 0;
#X connect 7 1 22 0;
#X connect 7 2 24 0;
#X connect 7 3 23 0;
#X connect 8 0 4 0;
#X connect 8 1 9 0;
#X connect 8 2 25 0;
#X connect 9 0 5 0;
#X connect 10 0 8 0;
#X connect 11 0 13 0;
#X connect 11 0 17 0;
#X connect 12 0 11 1;
#X connect 13 0 14 0;
#X connect 13 1 15 1;
#X connect 13 2 15 2;
#X connect 14 0 15 0;
#X connect 15 0 16 0;
#X connect 18 0 4 1;
#X connect 21 0 11 0;
#X connect 26 0 12 0;
#X connect 27 0 22 0;
#X restore 134 340 pd many_notes;
#N canvas -8 -8 1366 685 test_notes 0;
#X obj 37 37 inlet;
#X msg 42 169 48;
#X msg 77 169 62;
#X msg 110 168 58;
#X msg 142 170 51;
#X obj 109 30 inlet;
#X obj 36 91 random 8;
#X obj 37 115 sel 0 1 2 3 4 5 6 7;
#X msg 208 170 72;
#X msg 249 169 24;
#X obj 299 95 random 8;
#X obj 300 119 sel 0 1 2 3 4 5 6 7;
#X msg 294 172 48;
#X msg 329 172 62;
#X msg 362 171 58;
#X msg 394 173 51;
#X msg 460 173 64;
#X msg 427 173 55;
#X msg 501 172 45;
#X msg 540 172 40;
#X obj 139 324 poly 16 1;
#X obj 139 348 - 1;
#X obj 139 372 pack f f f;
#X obj 139 396 outlet;
#X obj 42 397 outlet;
#X obj 42 230 pack f f;
#X obj 36 70 metro 200;
#X connect 0 0 26 0;
#X connect 1 0 25 0;
#X connect 2 0 25 0;
#X connect 3 0 25 0;
#X connect 4 0 25 0;
#X connect 5 0 26 1;
#X connect 6 0 7 0;
#X connect 7 0 1 0;
#X connect 7 1 2 0;
#X connect 7 2 3 0;
#X connect 7 3 4 0;
#X connect 7 4 1 0;
#X connect 7 5 8 0;
#X connect 7 6 9 0;
#X connect 8 0 25 0;
#X connect 9 0 25 0;
#X connect 10 0 11 0;
#X connect 11 0 12 0;
#X connect 11 1 13 0;
#X connect 11 2 14 0;
#X connect 11 3 15 0;
#X connect 11 4 17 0;
#X connect 11 5 16 0;
#X connect 11 6 18 0;
#X connect 11 7 19 0;
#X connect 12 0 25 1;
#X connect 13 0 25 1;
#X connect 14 0 25 1;
#X connect 15 0 25 1;
#X connect 16 0 25 1;
#X connect 17 0 25 1;
#X connect 18 0 25 1;
#X connect 19 0 25 1;
#X connect 20 0 21 0;
#X connect 20 1 22 1;
#X connect 20 2 22 2;
#X connect 21 0 22 0;
#X connect 22 0 23 0;
#X connect 25 0 24 0;
#X connect 25 0 20 0;
#X connect 26 0 6 0;
#X connect 26 0 10 0;
#X restore 233 339 pd test_notes;
#X obj 233 253 tgl 15 0 empty empty empty 17 7 0 10 -262144 -1 -1 1
1;
#X msg 254 250 0;
#X obj 263 197 t f b;
#X obj 351 206 sel 1 2 3;
#X msg 454 174 1250;
#X obj 407 178 pipe;
#X msg 430 146 250;
#X obj 226 165 t f b;
#X obj 151 77 sel 0 1 2 3;
#X obj 275 145 t f b;
#X msg 179 109 1;
#X msg 217 117 2;
#X msg 249 109 3;
#X obj 134 449 outlet;
#X obj 178 286 inlet;
#X connect 0 0 16 0;
#X connect 1 0 21 0;
#X connect 2 0 1 0;
#X connect 3 0 6 0;
#X connect 4 0 2 0;
#X connect 5 0 3 0;
#X connect 6 0 21 0;
#X connect 7 0 21 0;
#X connect 8 0 7 0;
#X connect 9 0 8 0;
#X connect 10 0 13 0;
#X connect 10 1 4 0;
#X connect 10 1 5 0;
#X connect 10 1 9 0;
#X connect 11 0 2 0;
#X connect 11 1 3 0;
#X connect 11 2 8 0;
#X connect 12 0 13 1;
#X connect 13 0 11 0;
#X connect 14 0 13 1;
#X connect 15 0 10 0;
#X connect 15 1 14 0;
#X connect 16 0 4 0;
#X connect 16 0 5 0;
#X connect 16 0 9 0;
#X connect 16 1 18 0;
#X connect 16 2 19 0;
#X connect 16 3 20 0;
#X connect 17 0 10 0;
#X connect 17 1 12 0;
#X connect 18 0 15 0;
#X connect 19 0 17 0;
#X connect 20 0 17 0;
#X connect 22 0 1 1;
#X connect 22 0 7 1;
#X connect 22 0 6 1;
#X restore 110 86 pd melodies;
#X obj 209 40 vsl 15 128 175 500 0 0 empty empty empty 0 -9 0 10 -262144
-1 -1 0 1;
#X obj 401 200 cnv 15 648 389 empty empty Pattern_Generator 0 12 0
14 -233017 -66577 0;
#X obj 1072 481 tgl 15 0 empty empty empty 17 7 0 10 -262144 -1 -1
0 1;
#X obj 1072 505 metro;
#X obj 1072 529 f;
#X obj 1104 529 + 1;
#X obj 1104 557 mod;
#X floatatom 966 640 5 0 0 0 - - -;
#X floatatom 1115 505 5 0 0 0 - - -;
#X floatatom 639 466 5 0 100 2 Enter_Velocities_(Hz): - -;
#X obj 644 536 bng 15 250 50 0 empty empty Finish_Velocity_Pattern
0 -6 0 10 -262144 -1 -1;
#X obj 667 549 bng 15 250 50 0 empty empty Reset_Velocity_Pattern 0
-8 0 10 -262144 -1 -1;
#X floatatom 855 467 5 0 7 2 Enter_Notes_(Scale_Degrees): - -;
#X obj 855 532 bng 15 250 50 0 empty empty Finish_Notes_Pattern 0 -6
0 10 -262144 -1 -1;
#X obj 878 544 bng 15 250 50 0 empty empty Reset_Notes_Pattern 0 -8
0 10 -262144 -1 -1;
#X obj 60 515 loadbang;
#X msg 262 595 \; pd dsp 1 \;;
#X floatatom 405 467 5 0 60 2 Enter_Durations_(Seconds): - -;
#X obj 410 537 bng 15 250 50 0 empty empty Finish_Duration_Pattern
0 -6 0 10 -262144 -1 -1;
#X obj 434 553 bng 15 250 50 0 empty empty Reset_Duration_Pattern 0
-8 0 10 -262144 -1 -1;
#X text 459 468 (limit on 10 numbers);
#X text 678 468 (limit on 10 numbers);
#X text 894 468 (limit on 10 numbers);
#X text 405 233 Harmony Modulator:;
#X text 404 273 Root Modulator:;
#X obj 557 276 tgl 15 0 empty empty a 0 -7 0 10 -262144 -1 -1 0 1;
#X obj 696 276 tgl 15 0 empty empty b 0 -7 0 10 -262144 -1 -1 0 1;
#X obj 846 276 tgl 15 0 empty empty c 0 -7 0 10 -262144 -1 -1 0 1;
#X obj 557 346 tgl 15 0 empty empty C 0 -7 0 10 -262144 -1 -1 0 1;
#X obj 696 346 tgl 15 0 empty empty E 0 -7 0 10 -262144 -1 -1 0 1;
#X obj 846 346 tgl 15 0 empty empty G 0 -7 0 10 -262144 -1 -1 0 1;
#X obj 927 346 tgl 15 0 empty empty A 0 -7 0 10 -262144 -1 -1 0 1;
#X obj 997 346 tgl 15 0 empty empty B 0 -7 0 10 -262144 -1 -1 0 1;
#X obj 617 346 tgl 15 0 empty empty D 0 -7 0 10 -262144 -1 -1 0 1;
#X obj 767 346 tgl 15 0 empty empty F 0 -7 0 10 -262144 -1 -1 0 1;
#X text 404 330 Tonal Centre:;
#X obj 585 322 tgl 15 0 empty empty Db/Cs 0 -7 0 10 -262144 -1 -1 0
1;
#X obj 655 322 tgl 15 0 empty empty Eb/Ds 0 -7 0 10 -262144 -1 -1 0
1;
#X obj 805 322 tgl 15 0 empty empty Gb/Fs 0 -7 0 10 -262144 -1 -1 0
1;
#X obj 885 322 tgl 15 0 empty empty Ab/Gs 0 -7 0 10 -262144 -1 -1 0
1;
#X obj 971 322 tgl 15 0 empty empty Bb/As 0 -7 0 10 -262144 -1 -1 0
1;
#X text 405 399 Octave Modulator:;
#X obj 580 401 tgl 15 0 empty empty -5 0 -5 0 10 -262144 -1 -1 0 -1
;
#X obj 620 401 tgl 15 0 empty empty -4 0 -5 0 10 -262144 -1 -1 0 -1
;
#X obj 660 401 tgl 15 0 empty empty -3 0 -5 0 10 -262144 -1 -1 0 -1
;
#X obj 700 401 tgl 15 0 50 0 -2 0 -5 0 10 -262144 -1 -1 0 -1;
#X obj 740 401 tgl 15 0 50 0 -1 0 -5 0 10 -262144 -1 -1 0 -1;
#X obj 780 401 tgl 15 0 50 0 0 0 -5 0 10 -262144 -1 -1 0 -1;
#X obj 820 401 tgl 15 0 50 0 1 0 -5 0 10 -262144 -1 -1 0 -1;
#X obj 860 401 tgl 15 0 50 0 2 0 -5 0 10 -262144 -1 -1 0 -1;
#X obj 900 401 tgl 15 0 50 0 3 0 -5 0 10 -262144 -1 -1 0 -1;
#X obj 940 401 tgl 15 0 50 0 4 0 -5 0 10 -262144 -1 -1 0 -1;
#X obj 977 401 tgl 15 0 50 0 5 0 -5 0 10 -262144 -1 -1 0 -1;
#X obj 927 276 tgl 15 0 empty empty g 0 -7 0 10 -262144 -1 -1 0 1;
#X obj 767 276 tgl 15 0 empty empty f 0 -7 0 10 -262144 -1 -1 0 1;
#X obj 617 276 tgl 15 0 empty empty e 0 -7 0 10 -262144 -1 -1 0 1;
#X obj 997 276 tgl 15 0 empty empty d 0 -7 0 10 -262144 -1 -1 0 1;
#X obj 582 231 tgl 15 0 \$0-b2 \$0-b20 b2 0 -7 0 10 -262144 -1 -1 0
1;
#X obj 662 230 tgl 15 0 \$0-b3 empty b3 0 -7 0 10 -262144 -1 -1 0 1
;
#X obj 797 228 tgl 15 0 \$0-s4 empty s4 0 -7 0 10 -262144 -1 -1 0 1
;
#X obj 877 228 tgl 15 0 \$0-s5 \$0-s50 s5 0 -7 0 10 -262144 -1 -1 0
1;
#X obj 959 228 tgl 15 0 \$0-s6 \$0-s60 s6 0 -7 0 10 -262144 -1 -1 0
1;
#X obj 641 230 tgl 15 0 \$0-s2 \$0-s20 s2 0 -7 0 10 -262144 -1 -1 0
1;
#X obj 817 228 tgl 15 0 \$0-b5 \$0-b50 b5 0 -7 0 10 -262144 -1 -1 0
1;
#X obj 898 228 tgl 15 0 \$0-b6 \$0-b60 b6 0 -7 0 10 -262144 -1 -1 0
1;
#X obj 980 228 tgl 15 0 \$0-b7 \$0-b70 b7 0 -7 0 10 -262144 -1 -1 0
1;
#X obj 1032 249 tgl 15 0 \$0-s7 \$0-s70 s7 0 -7 0 10 -262144 -1 -1
0 1;
#N canvas -8 -8 1366 685 tonalcentre 0;
#X obj 156 130 sel 1;
#X msg 156 154 0;
#X obj 205 56 sel 1;
#X msg 173 55 1;
#X obj 224 152 sel 1;
#X msg 191 152 2;
#X obj 205 22 inlet;
#X obj 156 97 inlet;
#X obj 224 118 inlet;
#X obj 295 56 sel 1;
#X obj 314 172 sel 1;
#X obj 295 22 inlet;
#X obj 314 138 inlet;
#X msg 263 55 3;
#X msg 281 172 4;
#X obj 375 56 sel 1;
#X obj 394 202 sel 1;
#X obj 375 22 inlet;
#X obj 394 168 inlet;
#X msg 343 55 5;
#X msg 361 202 6;
#X obj 455 56 sel 1;
#X obj 474 230 sel 1;
#X obj 455 22 inlet;
#X obj 474 196 inlet;
#X obj 535 56 sel 1;
#X obj 554 260 sel 1;
#X obj 535 22 inlet;
#X obj 554 226 inlet;
#X msg 423 55 7;
#X msg 441 230 8;
#X msg 503 55 9;
#X msg 521 260 10;
#X obj 615 56 sel 1;
#X obj 615 22 inlet;
#X msg 583 55 11;
#X obj 29 282 s \$0-tonalcentre;
#X connect 0 0 1 0;
#X connect 1 0 36 0;
#X connect 2 0 3 0;
#X connect 3 0 36 0;
#X connect 4 0 5 0;
#X connect 5 0 36 0;
#X connect 6 0 2 0;
#X connect 7 0 0 0;
#X connect 8 0 4 0;
#X connect 9 0 13 0;
#X connect 10 0 14 0;
#X connect 11 0 9 0;
#X connect 12 0 10 0;
#X connect 13 0 36 0;
#X connect 14 0 36 0;
#X connect 15 0 19 0;
#X connect 16 0 20 0;
#X connect 17 0 15 0;
#X connect 18 0 16 0;
#X connect 19 0 36 0;
#X connect 20 0 36 0;
#X connect 21 0 29 0;
#X connect 22 0 30 0;
#X connect 23 0 21 0;
#X connect 24 0 22 0;
#X connect 25 0 31 0;
#X connect 26 0 32 0;
#X connect 27 0 25 0;
#X connect 28 0 26 0;
#X connect 29 0 36 0;
#X connect 30 0 36 0;
#X connect 31 0 36 0;
#X connect 32 0 36 0;
#X connect 33 0 35 0;
#X connect 34 0 33 0;
#X connect 35 0 36 0;
#X restore 557 369 pd tonalcentre;
#X f 65;
#N canvas -8 -8 1366 685 octaves 0;
#X obj 156 130 sel 1;
#X msg 156 154 0;
#X obj 205 56 sel 1;
#X msg 173 55 1;
#X obj 224 152 sel 1;
#X msg 191 152 2;
#X obj 295 56 sel 1;
#X obj 314 172 sel 1;
#X msg 263 55 3;
#X msg 281 172 4;
#X obj 375 56 sel 1;
#X obj 394 202 sel 1;
#X msg 343 55 5;
#X msg 361 202 6;
#X obj 455 56 sel 1;
#X obj 474 230 sel 1;
#X obj 535 56 sel 1;
#X obj 554 260 sel 1;
#X msg 423 55 7;
#X msg 441 230 8;
#X msg 503 55 9;
#X msg 521 260 10;
#X obj 28 282 s \$0-octaves;
#X floatatom 521 284 5 0 0 0 - - -;
#X obj 156 103 inlet;
#X obj 205 31 inlet;
#X obj 224 122 inlet;
#X obj 295 29 inlet;
#X obj 314 147 inlet;
#X obj 375 28 inlet;
#X obj 394 175 inlet;
#X obj 455 28 inlet;
#X obj 474 204 inlet;
#X obj 535 29 inlet;
#X obj 554 235 inlet;
#X connect 0 0 1 0;
#X connect 1 0 22 0;
#X connect 2 0 3 0;
#X connect 3 0 22 0;
#X connect 4 0 5 0;
#X connect 5 0 22 0;
#X connect 6 0 8 0;
#X connect 7 0 9 0;
#X connect 8 0 22 0;
#X connect 9 0 22 0;
#X connect 10 0 12 0;
#X connect 11 0 13 0;
#X connect 12 0 22 0;
#X connect 13 0 22 0;
#X connect 14 0 18 0;
#X connect 15 0 19 0;
#X connect 16 0 20 0;
#X connect 17 0 21 0;
#X connect 18 0 22 0;
#X connect 19 0 22 0;
#X connect 20 0 22 0;
#X connect 21 0 22 0;
#X connect 21 0 23 0;
#X connect 24 0 0 0;
#X connect 25 0 2 0;
#X connect 26 0 4 0;
#X connect 27 0 6 0;
#X connect 28 0 7 0;
#X connect 29 0 10 0;
#X connect 30 0 11 0;
#X connect 31 0 14 0;
#X connect 32 0 15 0;
#X connect 33 0 16 0;
#X connect 34 0 17 0;
#X restore 580 427 pd octaves;
#X f 62;
#N canvas -8 -8 1366 685 harmonydeterminer 0;
#X obj 405 198 tgl 15 0 empty \$0-b2 b2 0 -7 0 10 -262144 -1 -1 0 1
;
#X text 104 290 Harmony Modulator:;
#X obj 522 713 + 60;
#X obj 23 257 hradio 15 1 0 7 empty empty empty 0 -8 0 10 -262144 -1
-1 4;
#X obj 522 676 *;
#X obj 563 610 t b f;
#X obj 563 562 hradio 15 1 0 11 empty empty empty 0 -8 0 10 -262144
-1 -1 10;
#X msg 512 648 12;
#X obj 563 582 - 5;
#X obj 23 287 * 2;
#X obj 23 313 expr if($f1 == 6 \, 5 \, $f1);
#X obj 23 337 expr if($f1 >= 8 \, $f1-1 \, $f1);
#X text 741 561 octave;
#X obj 543 456 hradio 15 1 0 12 empty empty empty 0 -8 0 12 -262144
-1 -1 3;
#X obj 398 667 +;
#X text 728 454 tonal centre;
#X obj 23 403 expr if($f1 == 2 \, $f1-$f2 \, $f1);
#X obj 446 197 tgl 15 0 empty \$0-s2 s2 0 -7 0 10 -262144 -1 -1 0 1
;
#X obj 23 433 expr if($f1 == 2 \, $f1+$f2 \, $f1);
#X obj 379 99 sel 1;
#X msg 379 124 0;
#X obj 316 126 sel 1;
#X msg 316 151 0;
#X text 32 203 do re me fa so la ti;
#X text 35 224 0__2__4__5__7__9__11;
#X text 252 406 0__1__4__5__7__9__11;
#X text 244 431 0__3__4__5__7__9__11;
#X obj 23 457 expr if($f1 == 4 \, $f1-$f2 \, $f1);
#X text 244 457 0__2__3__5__7__9__11;
#X obj 23 481 expr if($f1 == 5 \, $f1+$f2 \, $f1);
#X obj 23 505 expr if($f1 == 7 \, $f1-$f2 \, $f1);
#X text 244 506 0__2__4__5__6__9__11;
#X text 244 481 0__2__4__6__7__9__11;
#X text 244 530 0__2__4__5__8__9__11;
#X obj 23 529 expr if($f1 == 7 \, $f1+$f2 \, $f1);
#X text 244 555 0__2__4__5__7__8__11;
#X obj 23 554 expr if($f1 == 9 \, $f1+$f2 \, $f1);
#X obj 505 126 sel 1;
#X msg 505 154 0;
#X obj 666 261 sel 1;
#X msg 666 286 0;
#X obj 23 578 expr if($f1 == 9 \, $f1+$f2 \, $f1);
#X text 244 579 0__2__4__5__7__10__11;
#X obj 566 87 sel 1;
#X msg 566 112 0;
#X obj 684 101 sel 1;
#X msg 684 126 0;
#X obj 740 171 sel 1;
#X msg 740 195 0;
#X obj 769 232 sel 1;
#X msg 769 257 0;
#X obj 23 602 expr if($f1 == 11 \, $f1-$f2 \, $f1);
#X obj 23 626 expr if($f1 == 11 \, $f1+$f2 \, $f1);
#X text 252 603 0__2__4__5__7__9__10;
#X text 253 626 0__2__4__5__7__9__12;
#X obj 23 31 inlet;
#X obj 398 723 outlet;
#X obj 543 427 r \$0-tonalcentre;
#X obj 563 534 r \$0-octaves;
#X obj 482 198 tgl 15 0 empty \$0-b3 b3 0 -7 0 10 -262144 -1 -1 0 1
;
#X obj 518 198 tgl 15 0 empty \$0-s4 s4 0 -7 0 10 -262144 -1 -1 0 1
;
#X obj 553 198 tgl 15 0 empty \$0-b5 b5 0 -7 0 10 -262144 -1 -1 0 1
;
#X obj 584 198 tgl 15 0 empty \$0-s5 s5 0 -7 0 10 -262144 -1 -1 0 1
;
#X obj 615 198 tgl 15 0 empty \$0-b6 b6 0 -7 0 10 -262144 -1 -1 0 1
;
#X obj 645 198 tgl 15 0 empty \$0-s6 s6 0 -7 0 10 -262144 -1 -1 0 1
;
#X obj 675 198 tgl 15 0 empty \$0-b7 b7 0 -7 0 10 -262144 -1 -1 0 1
;
#X obj 701 198 tgl 15 0 empty \$0-s7 s7 0 -7 0 10 -262144 -1 -1 0 1
;
#X obj 415 125 s \$0-b20;
#X obj 546 151 s \$0-b50;
#X obj 603 113 s \$0-b60;
#X obj 774 196 s \$0-b70;
#X text 34 182 scale:;
#X obj 357 153 s \$0-s20;
#X obj 719 125 s \$0-s60;
#X obj 805 258 s \$0-s70;
#X obj 700 285 s \$0-s50;
#X floatatom 94 93 5 0 0 0 - - -;
#X obj 23 144 - 1;
#X obj 398 699 + 60;
#X connect 0 0 16 1;
#X connect 0 0 21 0;
#X connect 2 0 78 1;
#X connect 3 0 9 0;
#X connect 4 0 2 0;
#X connect 5 0 7 0;
#X connect 5 1 4 1;
#X connect 6 0 8 0;
#X connect 7 0 4 0;
#X connect 8 0 5 0;
#X connect 9 0 10 0;
#X connect 10 0 11 0;
#X connect 11 0 16 0;
#X connect 13 0 14 1;
#X connect 14 0 78 0;
#X connect 16 0 18 0;
#X connect 17 0 19 0;
#X connect 17 0 18 1;
#X connect 18 0 27 0;
#X connect 19 0 20 0;
#X connect 20 0 67 0;
#X connect 21 0 22 0;
#X connect 22 0 72 0;
#X connect 27 0 29 0;
#X connect 29 0 30 0;
#X connect 30 0 34 0;
#X connect 34 0 36 0;
#X connect 36 0 41 0;
#X connect 37 0 38 0;
#X connect 38 0 68 0;
#X connect 39 0 40 0;
#X connect 40 0 75 0;
#X connect 41 0 51 0;
#X connect 43 0 44 0;
#X connect 44 0 69 0;
#X connect 45 0 46 0;
#X connect 46 0 73 0;
#X connect 47 0 48 0;
#X connect 48 0 70 0;
#X connect 49 0 50 0;
#X connect 50 0 74 0;
#X connect 51 0 52 0;
#X connect 52 0 14 0;
#X connect 55 0 76 0;
#X connect 55 0 77 0;
#X connect 57 0 13 0;
#X connect 58 0 6 0;
#X connect 59 0 27 1;
#X connect 60 0 29 1;
#X connect 61 0 30 1;
#X connect 61 0 39 0;
#X connect 62 0 34 1;
#X connect 62 0 37 0;
#X connect 63 0 36 1;
#X connect 63 0 45 0;
#X connect 64 0 41 1;
#X connect 64 0 43 0;
#X connect 65 0 49 0;
#X connect 65 0 51 1;
#X connect 66 0 47 0;
#X connect 66 0 52 1;
#X connect 77 0 3 0;
#X connect 78 0 56 0;
#X restore 1138 639 pd harmonydeterminer;
#X floatatom 1138 664 5 0 0 0 - - -;
#X obj 1120 478 * 1000;
#X obj 402 590 t b b;
#X obj 631 589 t b b;
#X obj 857 593 t b b;
#X obj 920 637 f;
#X obj 920 661 + 1;
#X obj 920 685 sel 1;
#X obj 700 627 f;
#X obj 700 651 + 1;
#X obj 700 675 sel 1;
#X obj 470 627 f;
#X obj 470 651 + 1;
#X obj 470 675 sel 1;
#X obj 801 683 f;
#X obj 801 708 + 1;
#X obj 801 731 sel 3;
#X msg 883 720 1;
#X obj 182 468 declare -path else;
#X obj 410 497 display;
#X obj 638 497 display;
#X obj 855 497 display;
#X obj 855 570 tgl 15 0 empty empty Note_Pattern_in_Motion_(On/Off)
0 -5 0 10 -262144 -1 -1 0 1;
#X obj 1146 557 r \$1-MOmod;
#X floatatom 1252 568 5 0 0 0 - - -;
#X floatatom 1146 581 5 0 0 0 - - -;
#X floatatom 1299 619 5 0 0 0 - - -;
#X obj 1074 707 sel 0;
#X obj 464 568 bng 15 250 50 0 empty empty Sequence_Start/Finish 17
7 0 10 -262144 -1 -1;
#X msg 1100 208 listen 4242;
#X obj 1112 278 netreceive 4242;
#X obj 1112 319 route chord1likelihood chord2likelihood multioscdecaytime
multioscwahwah multioscvolume MOdurations MOvelocities MOnotes;
#X obj 1328 204 route myMessage2 banana;
#X msg 1328 228 symbol myMessage2;
#X msg 1409 248 symbol banana;
#X symbolatom 1328 252 10 0 0 0 - - -;
#X symbolatom 1408 272 10 0 0 0 - - -;
#X obj 579 127 vsl 15 30 0 100 0 0 \$0-acidfilterwahwah empty Wah-Wah_Likelihood
0 -9 0 10 -262144 -1 -1 800 1;
#X obj 110 189 s \$0-afnotes;
#X obj 150 217 s \$0-afvelocity;
#X obj 174 365 table \$1-AFnotes;
#X obj 194 395 table \$1-AFvelocity;
#X obj 218 428 table \$1-AFdurations;
#X obj 1146 527 tabread \$1-AFdurations;
#X obj 1138 609 tabread \$1-AFnotes;
#X obj 963 612 tabread \$1-AFvelocity;
#X obj 1138 690 s \$0-afnotes;
#N canvas -8 -8 1366 685 durationpatterns 0;
#X msg 189 276 add2 \$1;
#X msg 480 198 set;
#X msg 319 354 add2 0;
#X msg 42 256 add2 \$1;
#X obj 482 335 t a a;
#X msg 262 255;
#X obj 19 156 t b f f;
#X msg 579 345 enter values above;
#X obj 163 71 inlet;
#X obj 342 102 inlet;
#X obj 19 11 inlet;
#X obj 406 507 outlet;
#X obj 19 103 spigot 1;
#X msg 88 108 0;
#X msg 86 81 1;
#X obj 163 208 t b b;
#X obj 19 57 t f b;
#X obj 77 33 f;
#X obj 107 33 + 1;
#X msg 94 8 0;
#X obj 114 58 sel 11;
#X obj 202 443 f \$0;
#X msg 189 481 0;
#X obj 160 33 s \$1-MOmod;
#X obj 342 232 t b b b b b b;
#X obj 189 505 send \$1-AFdurations;
#X connect 0 0 22 0;
#X connect 1 0 4 0;
#X connect 2 0 22 0;
#X connect 3 0 5 0;
#X connect 4 0 5 0;
#X connect 4 1 22 0;
#X connect 5 0 11 0;
#X connect 6 0 5 0;
#X connect 6 1 3 0;
#X connect 6 2 0 0;
#X connect 7 0 11 0;
#X connect 8 0 15 0;
#X connect 9 0 24 0;
#X connect 10 0 16 0;
#X connect 12 0 6 0;
#X connect 13 0 12 1;
#X connect 14 0 12 1;
#X connect 15 0 21 0;
#X connect 15 1 13 0;
#X connect 16 0 12 0;
#X connect 16 1 17 0;
#X connect 17 0 18 0;
#X connect 18 0 17 1;
#X connect 18 0 20 0;
#X connect 18 0 23 0;
#X connect 19 0 17 1;
#X connect 20 0 13 0;
#X connect 21 0 22 0;
#X connect 22 0 25 0;
#X connect 24 0 2 0;
#X connect 24 1 21 0;
#X connect 24 2 1 0;
#X connect 24 3 7 0;
#X connect 24 4 14 0;
#X connect 24 5 19 0;
#X restore 330 643 pd durationpatterns;
#N canvas -8 -8 1366 685 velocitypatterns 0;
#X msg 189 276 add2 \$1;
#X msg 448 209 set;
#X msg 319 354 add2 0;
#X msg 42 256 add2 \$1;
#X obj 460 322 t a a;
#X msg 264 245;
#X obj 19 156 t b f f;
#X msg 579 345 enter values above;
#X obj 163 71 inlet;
#X obj 342 102 inlet;
#X obj 19 11 inlet;
#X obj 406 507 outlet;
#X obj 19 103 spigot 1;
#X msg 88 108 0;
#X msg 86 81 1;
#X obj 163 208 t b b;
#X obj 19 57 t f b;
#X obj 77 33 f;
#X obj 107 33 + 1;
#X msg 94 8 0;
#X obj 114 58 sel 11;
#X msg 189 481 0;
#X obj 127 434 f \$0;
#X obj 342 232 t b b b b b b;
#X obj 189 535 send \$1-AFvelocity;
#X connect 0 0 21 0;
#X connect 1 0 4 0;
#X connect 2 0 21 0;
#X connect 3 0 5 0;
#X connect 4 0 5 0;
#X connect 4 1 21 0;
#X connect 5 0 11 0;
#X connect 6 0 5 0;
#X connect 6 1 3 0;
#X connect 6 2 0 0;
#X connect 7 0 11 0;
#X connect 8 0 15 0;
#X connect 9 0 23 0;
#X connect 10 0 16 0;
#X connect 12 0 6 0;
#X connect 13 0 12 1;
#X connect 14 0 12 1;
#X connect 15 0 22 0;
#X connect 15 1 13 0;
#X connect 16 0 12 0;
#X connect 16 1 17 0;
#X connect 17 0 18 0;
#X connect 18 0 17 1;
#X connect 18 0 20 0;
#X connect 19 0 17 1;
#X connect 20 0 13 0;
#X connect 21 0 24 0;
#X connect 22 0 21 0;
#X connect 23 0 2 0;
#X connect 23 1 22 0;
#X connect 23 2 1 0;
#X connect 23 3 7 0;
#X connect 23 4 14 0;
#X connect 23 5 19 0;
#X restore 554 623 pd velocitypatterns;
#X obj 966 661 s \$0-afvelocity;
#N canvas -8 -8 1366 685 notepatterns 0;
#X msg 189 276 add2 \$1;
#X msg 448 209 set;
#X msg 319 354 add2 0;
#X obj 460 322 t a a;
#X msg 579 345 enter values above;
#X obj 163 71 inlet;
#X obj 342 102 inlet;
#X obj 19 11 inlet;
#X obj 406 507 outlet;
#X obj 19 103 spigot 1;
#X msg 88 108 0;
#X msg 86 81 1;
#X obj 163 208 t b b;
#X obj 19 57 t f b;
#X obj 77 33 f;
#X obj 107 33 + 1;
#X msg 94 8 0;
#X msg 262 255;
#X obj 19 156 t b f f;
#X msg 42 251 add2 \$1;
#X obj 114 58 sel 11;
#X msg 189 481 0;
#X obj 117 445 f \$0;
#X obj 342 232 t b b b b b b;
#X obj 189 519 send \$1-AFnotes;
#X connect 0 0 21 0;
#X connect 1 0 3 0;
#X connect 2 0 21 0;
#X connect 3 0 17 0;
#X connect 3 1 21 0;
#X connect 4 0 8 0;
#X connect 5 0 12 0;
#X connect 6 0 23 0;
#X connect 7 0 13 0;
#X connect 9 0 18 0;
#X connect 10 0 9 1;
#X connect 11 0 9 1;
#X connect 12 0 22 0;
#X connect 12 1 10 0;
#X connect 13 0 9 0;
#X connect 13 1 14 0;
#X connect 14 0 15 0;
#X connect 15 0 14 1;
#X connect 15 0 20 0;
#X connect 16 0 14 1;
#X connect 17 0 8 0;
#X connect 18 0 17 0;
#X connect 18 1 19 0;
#X connect 18 2 0 0;
#X connect 19 0 17 0;
#X connect 20 0 10 0;
#X connect 21 0 24 0;
#X connect 22 0 21 0;
#X connect 23 0 2 0;
#X connect 23 1 22 0;
#X connect 23 2 1 0;
#X connect 23 3 4 0;
#X connect 23 4 11 0;
#X connect 23 5 16 0;
#X restore 804 629 pd notepatterns;
#X msg 1078 94 vis \$1;
#X obj 1078 118 s pd-af;
#X msg 1078 69 0;
#X obj 970 12 bng 15 250 50 0 empty empty Close_Window 0 -5 0 10 -262144
-1 -1;
#X floatatom 631 90 5 0 25 2 Randomise_Parameters - #0-randomise;
#X obj 452 123 vsl 15 30 1 10 0 0 \$0-acidfilterresonance \$0-resonance
Resonance 0 -9 0 10 -262144 -1 -1 2011 1;
#X obj 510 65 vsl 15 30 5000 70000 0 0 \$0-acidampdecaytime \$0-ampdecay
Amp_Decay_Time 0 -9 0 10 -262144 -1 -1 2900 1;
#X obj 408 41 vsl 15 30 500 7000 0 0 \$0-acidfilterdecaytime \$0-filter
Filter_Decay_Time 0 -9 0 10 -262144 -1 -1 2469 1;
#X obj 60 539 t b b b b b;
#X obj 157 517 s \$0-testnotes&velocities;
#X obj 787 43 vsl 15 30 5000 7000 0 0 \$0-acidfilterdecaytimex empty
Filter_Decay_Time_Multiplier 0 -9 0 10 -262144 -1 -1 1500 1;
#X obj 886 114 vsl 15 30 50000 70000 0 0 \$0-acidampdecaytimex empty
Amp_Decay_Time_Multiplier 0 -9 0 10 -262144 -1 -1 2100 1;
#X obj 748 138 vsl 15 30 4 6 0 0 \$0-acidfilterresonancex empty Resonance_Multiplier
0 -9 0 10 -262144 -1 -1 1700 1;
#X connect 3 0 116 0;
#X connect 4 0 117 0;
#X connect 5 0 3 0;
#X connect 5 1 4 0;
#X connect 6 0 7 0;
#X connect 7 0 5 0;
#X connect 8 0 7 1;
#X connect 10 0 11 0;
#X connect 11 0 12 0;
#X connect 12 0 13 0;
#X connect 13 0 12 1;
#X connect 13 0 14 0;
#X connect 14 0 105 0;
#X connect 14 0 121 0;
#X connect 14 0 122 0;
#X connect 14 0 123 0;
#X connect 15 0 127 0;
#X connect 16 0 11 1;
#X connect 17 0 126 0;
#X connect 18 0 81 0;
#X connect 19 0 126 2;
#X connect 20 0 128 0;
#X connect 21 0 82 0;
#X connect 22 0 128 2;
#X connect 23 0 137 0;
#X connect 25 0 125 0;
#X connect 26 0 80 0;
#X connect 27 0 125 2;
#X connect 36 0 75 0;
#X connect 37 0 75 4;
#X connect 38 0 75 7;
#X connect 39 0 75 9;
#X connect 40 0 75 11;
#X connect 41 0 75 2;
#X connect 42 0 75 5;
#X connect 44 0 75 1;
#X connect 45 0 75 3;
#X connect 46 0 75 6;
#X connect 47 0 75 8;
#X connect 48 0 75 10;
#X connect 50 0 76 0;
#X connect 51 0 76 1;
#X connect 52 0 76 2;
#X connect 53 0 76 3;
#X connect 54 0 76 4;
#X connect 55 0 76 5;
#X connect 56 0 76 6;
#X connect 57 0 76 7;
#X connect 58 0 76 8;
#X connect 59 0 76 9;
#X connect 60 0 76 10;
#X connect 77 0 78 0;
#X connect 78 0 124 0;
#X connect 79 0 16 0;
#X connect 80 0 125 1;
#X connect 80 1 89 0;
#X connect 81 0 126 1;
#X connect 81 1 86 0;
#X connect 82 0 128 1;
#X connect 82 1 83 0;
#X connect 83 0 84 0;
#X connect 84 0 85 0;
#X connect 84 0 83 1;
#X connect 85 0 92 0;
#X connect 86 0 87 0;
#X connect 87 0 88 0;
#X connect 87 0 86 1;
#X connect 88 0 92 0;
#X connect 89 0 90 0;
#X connect 90 0 91 0;
#X connect 90 0 89 1;
#X connect 91 0 92 0;
#X connect 92 0 93 0;
#X connect 93 0 94 0;
#X connect 93 0 92 1;
#X connect 94 0 95 0;
#X connect 95 0 10 0;
#X connect 95 0 100 0;
#X connect 101 0 14 1;
#X connect 101 0 103 0;
#X connect 105 0 106 0;
#X connect 107 0 108 0;
#X connect 108 0 109 0;
#X connect 108 0 110 0;
#X connect 109 5 25 0;
#X connect 109 6 17 0;
#X connect 109 7 20 0;
#X connect 110 0 111 0;
#X connect 110 1 112 0;
#X connect 111 0 113 0;
#X connect 112 0 114 0;
#X connect 121 0 79 0;
#X connect 121 0 102 0;
#X connect 122 0 77 0;
#X connect 122 0 104 0;
#X connect 123 0 15 0;
#X connect 125 0 97 0;
#X connect 126 0 98 0;
#X connect 128 0 99 0;
#X connect 129 0 130 0;
#X connect 131 0 129 0;
#X connect 132 0 131 0;
#X connect 137 0 27 0;
#X connect 137 1 19 0;
#X connect 137 2 22 0;
#X connect 137 3 24 0;
#X connect 137 4 138 0;
#X coords 0 -1 1 1 650 590 1 400 0;
