#N canvas -8 -8 1366 685 12;
#X obj 104 161 f;
#X obj 104 185 + 1;
#X obj 22 87 bng 15 250 50 0 empty empty create_Multi-Osc_pattern_generator
17 7 0 10 -262144 -1 -1;
#X obj 22 223 pack f f;
#X obj 22 160 -690;
#X obj 22 184 + 690;
#X obj 272 84 bng 15 250 50 0 empty empty reset 17 7 0 10 -262144 -1
-1;
#X msg 136 161 0;
#X msg 61 161 -690;
#X obj 272 104 t b b b;
#X obj 1137 213 print \$0-interface;
#X msg 1137 184 message;
#X msg 1142 260 message;
#X obj 1142 284 s message;
#N canvas -8 -8 1366 685 multiosc 0;
#X obj 0 0 Multi-Oscillator 1;
#X obj 690 0 Multi-Oscillator 2;
#X restore 20 50 pd multiosc;
#X msg 22 273 \; pd-multiosc obj \$1 0 Multi-Oscillator \$2 \;;
#X msg 318 150 \; pd-multiosc clear;
#X obj 565 172 f;
#X obj 565 196 + 1;
#X obj 483 98 bng 15 250 50 0 empty empty create_Acid_Filter_pattern_generator
17 7 0 10 -262144 -1 -1;
#X obj 483 234 pack f f;
#X obj 483 171 -690;
#X obj 483 195 + 690;
#X obj 733 95 bng 15 250 50 0 empty empty reset 17 7 0 10 -262144 -1
-1;
#X msg 597 172 0;
#X msg 522 172 -690;
#X obj 733 115 t b b b;
#X msg 709 189 vis \$1;
#N canvas -8 -8 1366 685 af 0;
#X obj 0 0 AcidFilter 1;
#X obj 690 0 AcidFilter 2;
#X restore 483 55 pd af;
#X msg 483 284 \; pd-af obj \$1 0 AcidFilter \$2 \;;
#X msg 779 161 \; pd-af clear;
#X obj 709 213 s pd-af;
#X msg 709 164 1;
#X msg 226 172 vis \$1;
#X msg 226 147 1;
#X obj 226 196 s pd-multiosc;
#X obj 22 111 t b b b;
#X obj 483 122 t b b b;
#X msg 114 426 vis \$1;
#X msg 114 401 1;
#X obj 114 450 s Multi-Oscillator.pd;
#X text 242 417 how to do this?;
#X obj 547 446 snapshot~;
#X floatatom 547 470 5 0 0 0 - - -;
#X obj 566 375 tgl 15 0 empty empty empty 17 7 0 10 -262144 -1 -1 0
1;
#X obj 566 399 metro 1;
#X text 641 440 object for this?;
#X connect 0 0 1 0;
#X connect 1 0 0 1;
#X connect 1 0 3 1;
#X connect 2 0 36 0;
#X connect 3 0 15 0;
#X connect 4 0 5 0;
#X connect 5 0 3 0;
#X connect 5 0 4 1;
#X connect 6 0 9 0;
#X connect 7 0 0 1;
#X connect 8 0 4 1;
#X connect 9 0 8 0;
#X connect 9 1 7 0;
#X connect 9 2 16 0;
#X connect 11 0 10 0;
#X connect 12 0 13 0;
#X connect 17 0 18 0;
#X connect 18 0 17 1;
#X connect 18 0 20 1;
#X connect 19 0 37 0;
#X connect 20 0 29 0;
#X connect 21 0 22 0;
#X connect 22 0 20 0;
#X connect 22 0 21 1;
#X connect 23 0 26 0;
#X connect 24 0 17 1;
#X connect 25 0 21 1;
#X connect 26 0 25 0;
#X connect 26 1 24 0;
#X connect 26 2 30 0;
#X connect 27 0 31 0;
#X connect 32 0 27 0;
#X connect 33 0 35 0;
#X connect 34 0 33 0;
#X connect 36 0 4 0;
#X connect 36 1 0 0;
#X connect 36 2 34 0;
#X connect 37 0 21 0;
#X connect 37 1 17 0;
#X connect 37 2 32 0;
#X connect 38 0 40 0;
#X connect 39 0 38 0;
#X connect 42 0 43 0;
#X connect 44 0 45 0;
#X connect 45 0 42 0;
